<svg width="32" height="32" viewBox="0 0 32 32" fill="none" xmlns="http://www.w3.org/2000/svg">
<path d="M0 3C0 1.34315 1.34315 0 3 0H29C30.6569 0 32 1.34315 32 3V29C32 30.6569 30.6569 32 29 32H3C1.34315 32 0 30.6569 0 29V3Z" fill="url(#paint0_linear_14_854)"/>
<path d="M11.2929 9.29289C11.6834 8.90237 12.3164 8.90237 12.707 9.29289C13.0975 9.68342 13.0975 10.3164 12.707 10.707L7.41399 15.9999L12.707 21.2929C13.0975 21.6834 13.0975 22.3164 12.707 22.707C12.3164 23.0975 11.6834 23.0975 11.2929 22.707L5.29289 16.707C4.90237 16.3164 4.90237 15.6834 5.29289 15.2929L11.2929 9.29289Z" fill="white"/>
<path d="M20.7071 9.29289C20.3166 8.90237 19.6836 8.90237 19.293 9.29289C18.9025 9.68342 18.9025 10.3164 19.293 10.707L24.586 15.9999L19.293 21.2929C18.9025 21.6834 18.9025 22.3164 19.293 22.707C19.6836 23.0975 20.3166 23.0975 20.7071 22.707L26.7071 16.707C27.0976 16.3164 27.0976 15.6834 26.7071 15.2929L20.7071 9.29289Z" fill="white"/>
<defs>
<linearGradient id="paint0_linear_14_854" x1="0" y1="16" x2="24" y2="16" gradientUnits="userSpaceOnUse">
<stop stop-color="#182028"/>
<stop offset="1" stop-color="#035DB8"/>
</linearGradient>
</defs>
</svg>
