<?xml version="1.0" encoding="UTF-8"?>
<svg xmlns="http://www.w3.org/2000/svg" viewBox="552.66 382.49 814.68 315.02" width="814.68" height="315.02">
  <defs>
    <style>
      .cls-1 {
        fill: #0a1629;
      }

      .cls-2 {
        fill: #091629;
      }

      .cls-3 {
        mix-blend-mode: color-burn;
        opacity: .2;
      }

      .cls-4 {
        fill: #144197;
      }

      .cls-5 {
        isolation: isolate;
      }

      .cls-6 {
        fill: #1b64f0;
      }

      .cls-7 {
        opacity: .34;
      }

      .cls-8 {
        fill: #0a1729;
      }

      .cls-9 {
        fill: #eb473e;
      }

      .cls-10 {
        fill: #0b1729;
      }
    </style>
  </defs>
  <g class="cls-5">
    <g id="Layer_3" data-name="Layer 3">
      <g>
        <g>
          <g>
            <g class="cls-3">
              <path class="cls-10" d="M860.21,625.76c-3.08,0-5.83-.73-8.25-2.19-2.42-1.46-4.33-3.56-5.72-6.29-1.39-2.74-2.08-6-2.08-9.8s.69-7.09,2.08-9.82c1.39-2.74,3.29-4.84,5.72-6.3s5.18-2.2,8.25-2.2c1.88,0,3.65.27,5.3.81s3.13,1.33,4.43,2.37c1.3,1.04,2.38,2.3,3.23,3.78.85,1.48,1.43,3.17,1.73,5.05h-5.48c-.22-1.13-.62-2.13-1.18-3-.57-.87-1.26-1.61-2.07-2.21s-1.72-1.06-2.73-1.36c-1-.3-2.07-.45-3.18-.45-2.04,0-3.87.51-5.49,1.54-1.62,1.03-2.89,2.54-3.82,4.52-.93,1.99-1.39,4.41-1.39,7.29s.47,5.3,1.41,7.29c.94,1.99,2.22,3.49,3.83,4.5,1.61,1.01,3.43,1.52,5.46,1.52,1.12,0,2.17-.16,3.17-.47,1-.31,1.91-.77,2.73-1.36.82-.6,1.52-1.34,2.08-2.21.57-.88.96-1.88,1.18-2.99h5.5c-.27,1.75-.82,3.36-1.65,4.82-.83,1.46-1.89,2.73-3.18,3.82-1.29,1.08-2.77,1.92-4.44,2.5-1.67.58-3.48.87-5.44.87Z"/>
              <path class="cls-10" d="M887.07,625.28v-35.65h12.78c2.74,0,5.03.47,6.87,1.42s3.21,2.27,4.12,3.96c.91,1.69,1.36,3.63,1.36,5.81s-.46,4.13-1.38,5.78c-.92,1.65-2.29,2.93-4.13,3.84-1.83.91-4.13,1.36-6.89,1.36h-9.59v-4.67h9.07c1.75,0,3.17-.25,4.25-.75,1.08-.5,1.87-1.22,2.38-2.17s.77-2.07.77-3.4-.25-2.5-.77-3.47c-.51-.97-1.31-1.73-2.39-2.26-1.08-.53-2.51-.8-4.28-.8h-6.7v30.98h-5.46ZM907.33,625.28l-8.64-16.1h6.05l8.78,16.1h-6.2Z"/>
              <path class="cls-10" d="M924.55,625.28v-35.65h22.44v4.69h-16.99v10.62h15.77v4.67h-15.77v10.98h17.13v4.69h-22.59Z"/>
              <path class="cls-10" d="M957.11,625.28l12.68-35.65h6.7l12.92,35.65h-5.91l-6.94-19.83c-.54-1.61-1.14-3.51-1.78-5.7-.65-2.18-1.39-4.81-2.24-7.87h1.1c-.81,3.09-1.54,5.75-2.19,7.96-.64,2.21-1.22,4.08-1.71,5.61l-6.72,19.83h-5.91ZM963.97,615.88v-4.55h18.54v4.55h-18.54Z"/>
              <path class="cls-10" d="M994.28,594.32v-4.69h27.68v4.69h-11.08v30.96h-5.48v-30.96h-11.13Z"/>
              <path class="cls-10" d="M1039.25,589.63v35.65h-5.46v-35.65h5.46Z"/>
              <path class="cls-10" d="M1063.05,625.28l-12.9-35.65h5.88l6.94,19.83c.51,1.53,1.1,3.41,1.76,5.62s1.42,4.83,2.26,7.85h-1.12c.83-3.08,1.57-5.71,2.21-7.9.65-2.19,1.22-4.04,1.71-5.57l6.75-19.83h5.91l-12.73,35.65h-6.67Z"/>
              <path class="cls-10" d="M1093.35,625.28v-35.65h22.44v4.69h-16.99v10.62h15.77v4.67h-15.77v10.98h17.13v4.69h-22.59Z"/>
              <path class="cls-10" d="M1159.39,625.88c-2.66,0-4.98-.42-6.94-1.27-1.96-.85-3.5-2.05-4.61-3.62-1.11-1.57-1.72-3.44-1.83-5.61h5.48c.11,1.29.53,2.36,1.26,3.21s1.67,1.48,2.84,1.89c1.16.41,2.42.62,3.78.62,1.52,0,2.86-.23,4.03-.71,1.17-.47,2.1-1.14,2.79-2.01.69-.87,1.03-1.88,1.03-3.03,0-1.04-.3-1.89-.9-2.55-.6-.66-1.4-1.21-2.42-1.65-1.01-.44-2.17-.83-3.46-1.16l-4.16-1.15c-2.92-.78-5.2-1.94-6.83-3.47-1.64-1.53-2.45-3.52-2.45-5.96,0-2.06.55-3.86,1.66-5.4,1.11-1.54,2.62-2.74,4.52-3.59,1.9-.85,4.05-1.28,6.45-1.28s4.59.43,6.45,1.28c1.86.85,3.32,2.02,4.38,3.5s1.62,3.17,1.66,5.07h-5.31c-.18-1.63-.93-2.89-2.26-3.78s-3.01-1.34-5.04-1.34c-1.44,0-2.68.22-3.74.67-1.06.45-1.88,1.06-2.46,1.85-.58.79-.87,1.69-.87,2.69,0,1.13.35,2.05,1.04,2.74.69.69,1.54,1.24,2.54,1.65,1,.41,1.95.73,2.86.97l3.47.91c1.13.29,2.3.67,3.51,1.16,1.2.49,2.32,1.12,3.34,1.89,1.02.77,1.85,1.73,2.48,2.87.63,1.14.94,2.52.94,4.13,0,2.01-.52,3.8-1.55,5.38-1.04,1.58-2.54,2.82-4.51,3.72-1.97.9-4.35,1.35-7.14,1.35Z"/>
              <path class="cls-10" d="M1182.73,594.32v-4.69h27.68v4.69h-11.08v30.96h-5.48v-30.96h-11.12Z"/>
              <path class="cls-10" d="M1236.46,625.83c-2.86,0-5.35-.55-7.49-1.65-2.14-1.1-3.79-2.61-4.96-4.53-1.17-1.92-1.76-4.13-1.76-6.62v-23.4h5.46v22.94c0,1.61.36,3.04,1.06,4.28s1.72,2.22,3.03,2.94c1.31.72,2.86,1.08,4.67,1.08s3.33-.36,4.63-1.08c1.3-.72,2.3-1.7,3-2.94.7-1.24,1.05-2.67,1.05-4.28v-22.94h5.48v23.4c0,2.49-.59,4.69-1.76,6.62-1.17,1.92-2.82,3.43-4.95,4.53-2.13,1.1-4.61,1.65-7.45,1.65Z"/>
              <path class="cls-10" d="M1269.71,589.63v35.65h-5.46v-35.65h5.46ZM1275.83,625.28h-8.8v-4.79h8.52c2.7,0,4.94-.5,6.72-1.51,1.79-1,3.12-2.48,4.02-4.44.89-1.95,1.34-4.33,1.34-7.14s-.44-5.15-1.33-7.08c-.88-1.93-2.2-3.4-3.95-4.4-1.75-1-3.92-1.51-6.52-1.51h-9v-4.79h9.36c3.51,0,6.52.71,9.02,2.13,2.51,1.42,4.43,3.46,5.77,6.11,1.34,2.66,2.01,5.83,2.01,9.53s-.67,6.91-2.02,9.57c-1.35,2.66-3.3,4.71-5.86,6.15-2.56,1.44-5.65,2.15-9.27,2.15Z"/>
              <path class="cls-10" d="M1310.8,589.63v35.65h-5.46v-35.65h5.46Z"/>
              <path class="cls-10" d="M1339.29,625.76c-3.08,0-5.83-.73-8.27-2.19-2.43-1.46-4.35-3.56-5.74-6.29-1.4-2.74-2.09-6-2.09-9.8s.7-7.09,2.09-9.82c1.39-2.74,3.31-4.84,5.74-6.3,2.43-1.47,5.19-2.2,8.27-2.2s5.83.73,8.24,2.2c2.42,1.47,4.32,3.57,5.72,6.3s2.09,6.01,2.09,9.82-.7,7.06-2.09,9.8-3.3,4.83-5.72,6.29c-2.42,1.46-5.16,2.19-8.24,2.19ZM1339.29,620.78c2.03,0,3.84-.51,5.44-1.52,1.6-1.01,2.87-2.51,3.8-4.5.93-1.99,1.4-4.41,1.4-7.29s-.47-5.35-1.4-7.33c-.93-1.99-2.2-3.49-3.8-4.5s-3.42-1.52-5.44-1.52-3.87.51-5.48,1.53-2.88,2.52-3.82,4.51c-.93,1.99-1.4,4.42-1.4,7.31s.46,5.3,1.4,7.27,2.21,3.48,3.82,4.5,3.44,1.53,5.48,1.53Z"/>
            </g>
            <g>
              <path class="cls-1" d="M859.21,624.76c-3.08,0-5.83-.73-8.25-2.19-2.42-1.46-4.33-3.56-5.72-6.29-1.39-2.74-2.08-6-2.08-9.8s.69-7.09,2.08-9.82c1.39-2.74,3.29-4.84,5.72-6.3s5.18-2.2,8.25-2.2c1.88,0,3.65.27,5.3.81s3.13,1.33,4.43,2.37c1.3,1.04,2.38,2.3,3.23,3.78.85,1.48,1.43,3.17,1.73,5.05h-5.48c-.22-1.13-.62-2.13-1.18-3-.57-.87-1.26-1.61-2.07-2.21s-1.72-1.06-2.73-1.36c-1-.3-2.07-.45-3.18-.45-2.04,0-3.87.51-5.49,1.54-1.62,1.03-2.89,2.54-3.82,4.52-.93,1.99-1.39,4.41-1.39,7.29s.47,5.3,1.41,7.29c.94,1.99,2.22,3.49,3.83,4.5,1.61,1.01,3.43,1.52,5.46,1.52,1.12,0,2.17-.16,3.17-.47,1-.31,1.91-.77,2.73-1.36.82-.6,1.52-1.34,2.08-2.21.57-.88.96-1.88,1.18-2.99h5.5c-.27,1.75-.82,3.36-1.65,4.82-.83,1.46-1.89,2.73-3.18,3.82-1.29,1.08-2.77,1.92-4.44,2.5-1.67.58-3.48.87-5.44.87Z"/>
              <path class="cls-1" d="M886.07,624.28v-35.65h12.78c2.74,0,5.03.47,6.87,1.42s3.21,2.27,4.12,3.96c.91,1.69,1.36,3.63,1.36,5.81s-.46,4.13-1.38,5.78c-.92,1.65-2.29,2.93-4.13,3.84-1.83.91-4.13,1.36-6.89,1.36h-9.59v-4.67h9.07c1.75,0,3.17-.25,4.25-.75,1.08-.5,1.87-1.22,2.38-2.17s.77-2.07.77-3.4-.25-2.5-.77-3.47c-.51-.97-1.31-1.73-2.39-2.26-1.08-.53-2.51-.8-4.28-.8h-6.7v30.98h-5.46ZM906.33,624.28l-8.64-16.1h6.05l8.78,16.1h-6.2Z"/>
              <path class="cls-1" d="M923.55,624.28v-35.65h22.44v4.69h-16.99v10.62h15.77v4.67h-15.77v10.98h17.13v4.69h-22.59Z"/>
              <path class="cls-1" d="M956.11,624.28l12.68-35.65h6.7l12.92,35.65h-5.91l-6.94-19.83c-.54-1.61-1.14-3.51-1.78-5.7-.65-2.18-1.39-4.81-2.24-7.87h1.1c-.81,3.09-1.54,5.75-2.19,7.96-.64,2.21-1.22,4.08-1.71,5.61l-6.72,19.83h-5.91ZM962.97,614.88v-4.55h18.54v4.55h-18.54Z"/>
              <path class="cls-1" d="M993.28,593.32v-4.69h27.68v4.69h-11.08v30.96h-5.48v-30.96h-11.13Z"/>
              <path class="cls-1" d="M1038.25,588.63v35.65h-5.46v-35.65h5.46Z"/>
              <path class="cls-1" d="M1062.05,624.28l-12.9-35.65h5.88l6.94,19.83c.51,1.53,1.1,3.41,1.76,5.62s1.42,4.83,2.26,7.85h-1.12c.83-3.08,1.57-5.71,2.21-7.9.65-2.19,1.22-4.04,1.71-5.57l6.75-19.83h5.91l-12.73,35.65h-6.67Z"/>
              <path class="cls-1" d="M1092.35,624.28v-35.65h22.44v4.69h-16.99v10.62h15.77v4.67h-15.77v10.98h17.13v4.69h-22.59Z"/>
              <path class="cls-1" d="M1158.39,624.88c-2.66,0-4.98-.42-6.94-1.27-1.96-.85-3.5-2.05-4.61-3.62-1.11-1.57-1.72-3.44-1.83-5.61h5.48c.11,1.29.53,2.36,1.26,3.21s1.67,1.48,2.84,1.89c1.16.41,2.42.62,3.78.62,1.52,0,2.86-.23,4.03-.71,1.17-.47,2.1-1.14,2.79-2.01.69-.87,1.03-1.88,1.03-3.03,0-1.04-.3-1.89-.9-2.55-.6-.66-1.4-1.21-2.42-1.65-1.01-.44-2.17-.83-3.46-1.16l-4.16-1.15c-2.92-.78-5.2-1.94-6.83-3.47-1.64-1.53-2.45-3.52-2.45-5.96,0-2.06.55-3.86,1.66-5.4,1.11-1.54,2.62-2.74,4.52-3.59,1.9-.85,4.05-1.28,6.45-1.28s4.59.43,6.45,1.28c1.86.85,3.32,2.02,4.38,3.5s1.62,3.17,1.66,5.07h-5.31c-.18-1.63-.93-2.89-2.26-3.78s-3.01-1.34-5.04-1.34c-1.44,0-2.68.22-3.74.67-1.06.45-1.88,1.06-2.46,1.85-.58.79-.87,1.69-.87,2.69,0,1.13.35,2.05,1.04,2.74.69.69,1.54,1.24,2.54,1.65,1,.41,1.95.73,2.86.97l3.47.91c1.13.29,2.3.67,3.51,1.16,1.2.49,2.32,1.12,3.34,1.89,1.02.77,1.85,1.73,2.48,2.87.63,1.14.94,2.52.94,4.13,0,2.01-.52,3.8-1.55,5.38-1.04,1.58-2.54,2.82-4.51,3.72-1.97.9-4.35,1.35-7.14,1.35Z"/>
              <path class="cls-1" d="M1181.73,593.32v-4.69h27.68v4.69h-11.08v30.96h-5.48v-30.96h-11.12Z"/>
              <path class="cls-1" d="M1235.46,624.83c-2.86,0-5.35-.55-7.49-1.65-2.14-1.1-3.79-2.61-4.96-4.53-1.17-1.92-1.76-4.13-1.76-6.62v-23.4h5.46v22.94c0,1.61.36,3.04,1.06,4.28s1.72,2.22,3.03,2.94c1.31.72,2.86,1.08,4.67,1.08s3.33-.36,4.63-1.08c1.3-.72,2.3-1.7,3-2.94.7-1.24,1.05-2.67,1.05-4.28v-22.94h5.48v23.4c0,2.49-.59,4.69-1.76,6.62-1.17,1.92-2.82,3.43-4.95,4.53-2.13,1.1-4.61,1.65-7.45,1.65Z"/>
              <path class="cls-1" d="M1268.71,588.63v35.65h-5.46v-35.65h5.46ZM1274.83,624.28h-8.8v-4.79h8.52c2.7,0,4.94-.5,6.72-1.51,1.79-1,3.12-2.48,4.02-4.44.89-1.95,1.34-4.33,1.34-7.14s-.44-5.15-1.33-7.08c-.88-1.93-2.2-3.4-3.95-4.4-1.75-1-3.92-1.51-6.52-1.51h-9v-4.79h9.36c3.51,0,6.52.71,9.02,2.13,2.51,1.42,4.43,3.46,5.77,6.11,1.34,2.66,2.01,5.83,2.01,9.53s-.67,6.91-2.02,9.57c-1.35,2.66-3.3,4.71-5.86,6.15-2.56,1.44-5.65,2.15-9.27,2.15Z"/>
              <path class="cls-1" d="M1309.8,588.63v35.65h-5.46v-35.65h5.46Z"/>
              <path class="cls-1" d="M1338.29,624.76c-3.08,0-5.83-.73-8.27-2.19-2.43-1.46-4.35-3.56-5.74-6.29-1.4-2.74-2.09-6-2.09-9.8s.7-7.09,2.09-9.82c1.39-2.74,3.31-4.84,5.74-6.3,2.43-1.47,5.19-2.2,8.27-2.2s5.83.73,8.24,2.2c2.42,1.47,4.32,3.57,5.72,6.3s2.09,6.01,2.09,9.82-.7,7.06-2.09,9.8-3.3,4.83-5.72,6.29c-2.42,1.46-5.16,2.19-8.24,2.19ZM1338.29,619.78c2.03,0,3.84-.51,5.44-1.52,1.6-1.01,2.87-2.51,3.8-4.5.93-1.99,1.4-4.41,1.4-7.29s-.47-5.35-1.4-7.33c-.93-1.99-2.2-3.49-3.8-4.5s-3.42-1.52-5.44-1.52-3.87.51-5.48,1.53-2.88,2.52-3.82,4.51c-.93,1.99-1.4,4.42-1.4,7.31s.46,5.3,1.4,7.27,2.21,3.48,3.82,4.5,3.44,1.53,5.48,1.53Z"/>
            </g>
          </g>
          <g>
            <g class="cls-3">
              <path class="cls-10" d="M859.95,457.86l29.67,78.58c.87,2.32,2.46,3.33,4.78,3.33s3.76-1.01,4.78-3.33l31.11-78.58h18.96l-34.44,86.83c-3.62,9.12-10.27,12.59-20.4,12.59-9.55,0-16.93-3.04-20.55-12.59l-32.71-86.83h18.81Z"/>
            </g>
            <path class="cls-8" d="M858.95,455.86l29.67,78.58c.87,2.32,2.46,3.33,4.78,3.33s3.76-1.01,4.78-3.33l31.11-78.58h18.96l-34.44,86.83c-3.62,9.12-10.27,12.59-20.4,12.59-9.55,0-16.93-3.04-20.55-12.59l-32.71-86.83h18.81Z"/>
          </g>
          <g>
            <g class="cls-3">
              <path class="cls-10" d="M997.72,457.86v97.68h-17.08v-97.68h17.08Z"/>
            </g>
            <path class="cls-1" d="M996.72,455.86v97.68h-17.08v-97.68h17.08Z"/>
          </g>
          <g>
            <g class="cls-3">
              <path class="cls-10" d="M1165.88,555.54h-18.81l34.3-86.83c3.62-9.12,10.27-12.59,20.55-12.59s16.79,3.47,20.26,12.59l33,86.83h-18.96l-29.67-78.58c-.87-2.32-2.46-3.33-4.78-3.33s-3.91,1.01-4.92,3.33l-30.97,78.58Z"/>
            </g>
            <path class="cls-8" d="M1164.88,553.54h-18.81l34.3-86.83c3.62-9.12,10.27-12.59,20.55-12.59s16.79,3.47,20.26,12.59l33,86.83h-18.96l-29.67-78.58c-.87-2.32-2.46-3.33-4.78-3.33s-3.91,1.01-4.92,3.33l-30.97,78.58Z"/>
          </g>
          <g>
            <g class="cls-3">
              <path class="cls-10" d="M1080.79,457.86h-42.55v97.68h42.55c28.65,0,43.99-15.91,43.99-48.76s-15.49-48.92-43.99-48.92ZM1080.79,538.47h-23.59c-1.3,0-1.88-.44-1.88-1.74v-60.05c0-1.31.58-1.74,1.88-1.74h23.59c18.95,0,26.91,9.41,26.91,31.69s-7.96,31.84-26.91,31.84Z"/>
            </g>
            <path class="cls-10" d="M1079.79,455.86h-42.55v97.68h42.55c28.65,0,43.99-15.91,43.99-48.76s-15.49-48.92-43.99-48.92ZM1079.79,536.47h-23.59c-1.3,0-1.88-.44-1.88-1.74v-60.05c0-1.31.58-1.74,1.88-1.74h23.59c18.95,0,26.91,9.41,26.91,31.69s-7.96,31.84-26.91,31.84Z"/>
          </g>
          <g>
            <g class="cls-3">
              <path class="cls-10" d="M1354.88,538.47v17.07h-74.96v-97.68h17.07v80.53h17.42c.82.06,1.67.08,2.56.08h37.91Z"/>
            </g>
            <path class="cls-2" d="M1353.88,536.47v17.07h-74.96v-97.68h17.07v80.53h17.42c.82.06,1.67.08,2.56.08h37.91Z"/>
          </g>
        </g>
        <g>
          <g>
            <g class="cls-7">
              <polygon points="618.74 635.47 715.76 554.28 786.23 575.72 659.08 685.51 618.74 635.47"/>
            </g>
            <polygon class="cls-4" points="616.74 633.47 713.76 552.28 784.23 573.72 657.08 683.51 616.74 633.47"/>
          </g>
          <g>
            <g class="cls-7">
              <polygon points="641.97 396.49 711.93 448.57 631.76 538.96 641.97 396.49"/>
            </g>
            <polygon class="cls-6" points="639.97 394.49 709.93 446.57 629.76 536.96 639.97 394.49"/>
          </g>
          <g>
            <g class="cls-7">
              <polygon points="635.59 505.77 566.66 573.68 635.59 655.38 635.59 505.77"/>
            </g>
            <polygon class="cls-9" points="633.59 503.77 564.66 571.68 633.59 653.38 633.59 503.77"/>
          </g>
        </g>
      </g>
    </g>
  </g>
</svg>